<?xml version="1.0" encoding="utf-8"?>
<!-- Generator: Adobe Illustrator 21.0.0, SVG Export Plug-In . SVG Version: 6.00 Build 0)  -->
<svg version="1.1" id="Layer_1" xmlns="http://www.w3.org/2000/svg" xmlns:xlink="http://www.w3.org/1999/xlink" x="0px" y="0px"
	 viewBox="0 0 60 60" style="enable-background:new 0 0 60 60;" xml:space="preserve">
<style type="text/css">
	.st0{fill:#FFFFFF;}
</style>
<g>
	<path class="st0" d="M37,2c2.3,0,4.5,0.1,6,0.2V8h-3.5c-7.1,0-7.1,5.4-7.1,7.2v7.3v2h2h7.4L41,31.2h-6.6h-2v2V58h-6.7V33.2v-2h-2
		H17v-6.7h6.7h2v-2v-8.4C25.7,6.4,29.8,2,37,2 M37,0c-7.9,0-13.3,5-13.3,14.1v8.4H15v10.7h8.7V60h10.7V33.2h8.4l1.3-10.7h-9.7v-7.3
		c0-3.1,0.8-5.2,5.1-5.2H45V0.4C44.1,0.3,40.8,0,37,0L37,0z"/>
</g>
</svg>
