<?xml version="1.0"?>
<svg xmlns="http://www.w3.org/2000/svg" xmlns:xlink="http://www.w3.org/1999/xlink" version="1.1" id="Capa_1" x="0px" y="0px" viewBox="0 0 512 512" style="enable-background:new 0 0 512 512;" xml:space="preserve" width="512px" height="512px" class=""><g><g>
	<g>
		<path d="M437.333,469.333H288v-10.667c0-5.896-4.771-10.667-10.667-10.667h-10.667v-21.874    c112.658-5.612,202.667-98.758,202.667-212.793C469.333,95.698,373.625,0,256,0S42.667,95.698,42.667,213.333    c0,114.035,90.009,207.181,202.667,212.793V448h-10.667c-5.896,0-10.667,4.771-10.667,10.667v10.667H74.667    C68.771,469.333,64,474.104,64,480c0,5.896,4.771,10.667,10.667,10.667H224v10.667c0,5.896,4.771,10.667,10.667,10.667h42.667    c5.896,0,10.667-4.771,10.667-10.667v-10.667h149.333c5.896,0,10.667-4.771,10.667-10.667    C448,474.104,443.229,469.333,437.333,469.333z M303.772,399.074c16.499-20.651,29.772-51.831,38.191-89.741h80.059    C396.513,353.272,354.143,386.103,303.772,399.074z M324.449,288H187.551c-3.914-22.542-6.217-47.585-6.217-74.667    s2.303-52.125,6.217-74.667h136.898c3.914,22.542,6.217,47.585,6.217,74.667S328.363,265.458,324.449,288z M448,213.333    c0,26.469-5.383,51.703-15.113,74.667h-86.84c3.79-23.174,5.953-48.228,5.953-74.667c0-26.438-2.163-51.492-5.953-74.667h86.84    C442.617,161.63,448,186.865,448,213.333z M422.022,117.333h-80.059c-8.419-37.911-21.693-69.09-38.191-89.741    C354.143,40.564,396.513,73.395,422.022,117.333z M256,21.333c24.091,0,50.04,36.746,64.115,96H191.885    C205.96,58.079,231.909,21.333,256,21.333z M208.228,27.592c-16.499,20.651-29.772,51.829-38.191,89.741H89.978    C115.487,73.395,157.857,40.564,208.228,27.592z M64,213.333c0-26.469,5.384-51.703,15.115-74.667h86.839    c-3.79,23.174-5.953,48.229-5.953,74.667c0,26.439,2.163,51.492,5.953,74.667H79.115C69.384,265.036,64,239.802,64,213.333z     M89.978,309.333h80.059c8.419,37.91,21.693,69.09,38.191,89.741C157.857,386.103,115.487,353.272,89.978,309.333z     M191.885,309.333h128.229c-14.074,59.254-40.023,96-64.115,96S205.96,368.587,191.885,309.333z M266.667,490.667h-21.333v-21.333    h21.333V490.667z" data-original="#000000" class="active-path" data-old_color="#000000" fill="#FFFFFF"/>
	</g>
</g></g> </svg>
