<?xml version="1.0" encoding="utf-8"?>
<!-- Generator: Adobe Illustrator 21.0.0, SVG Export Plug-In . SVG Version: 6.00 Build 0)  -->
<svg version="1.1" id="Layer_1" xmlns="http://www.w3.org/2000/svg" xmlns:xlink="http://www.w3.org/1999/xlink" x="0px" y="0px"
	 viewBox="0 0 53.3 32.4" style="enable-background:new 0 0 53.3 32.4;" xml:space="preserve">
<style type="text/css">
	.st0{opacity:0.5;}
	.st1{fill:#FFFFFF;}
	.st2{fill:#D0D2D3;}
	.st3{fill:#F69220;}
	.st4{fill:#B2B2B2;}
</style>
<title>Asset 1</title>
<g>
	<g id="Layer_2_1_" class="st0">
		<g>
			<g id="Layer_1-2_9_">
				<polygon class="st1" points="53.3,0 53.3,32.4 0,32.4 0,32.4 18.7,0 				"/>
			</g>
		</g>
	</g>
	<g>
		<polygon class="st2" points="35.6,28 30.2,19.2 35.6,10.4 34.2,10.4 28.8,19.2 34.2,28 		"/>
		<polygon class="st2" points="38.1,28 32.7,19.2 38.1,10.4 36.7,10.4 31.3,19.2 36.7,28 		"/>
		<polygon class="st2" points="40.6,28 35.2,19.2 40.6,10.4 39.2,10.4 33.8,19.2 39.2,28 		"/>
		<polygon class="st2" points="43.1,28 37.7,19.2 43.1,10.4 41.7,10.4 36.3,19.2 41.7,28 		"/>
	</g>
	<g>
		
			<image style="overflow:visible;opacity:0.75;" width="31" height="19" xlink:href="F3A7F6A1.png"  transform="matrix(1 0 0 1 12 10.86)">
		</image>
		<g>
			<polygon class="st1" points="40.1,19.2 36.5,25 19.4,25 16,19.4 19.7,13.4 36.5,13.4 			"/>
		</g>
	</g>
	<g>
		<polygon class="st3" points="41.7,10.4 43.1,10.4 48.5,19.2 43.1,28 41.7,28 47,19.2 		"/>
		<polygon class="st3" points="39.2,10.4 40.6,10.4 46,19.2 40.6,28 39.2,28 44.6,19.2 		"/>
		<polygon class="st3" points="36.7,10.4 38.1,10.4 43.5,19.2 38.1,28 36.7,28 42.1,19.2 		"/>
		<polygon class="st3" points="34.2,10.4 35.6,10.4 41,19.2 35.6,28 34.2,28 39.6,19.2 		"/>
	</g>
	<path class="st4" d="M25.1,19.2c0,0.6-0.5,1.2-1.2,1.2c-0.6,0-1.2-0.5-1.2-1.2c0-0.6,0.5-1.2,1.2-1.2C24.5,18,25.1,18.6,25.1,19.2z
		 M28.4,18c-0.6,0-1.2,0.5-1.2,1.2c0,0.6,0.5,1.2,1.2,1.2s1.2-0.5,1.2-1.2C29.5,18.6,29,18,28.4,18z M32.8,18
		c-0.6,0-1.2,0.5-1.2,1.2c0,0.6,0.5,1.2,1.2,1.2s1.2-0.5,1.2-1.2C34,18.6,33.5,18,32.8,18z"/>
</g>
</svg>
