<svg xmlns="http://www.w3.org/2000/svg" viewBox="0 0 53.33 46.19"><defs><style>.cls-1{fill:#f7931e;}.cls-2{fill:#fff;}</style></defs><title>Asset 1</title><g id="Layer_2" data-name="Layer 2"><g id="Layer_1-2" data-name="Layer 1"><polygon class="cls-1" points="40 0 13.33 0 0 23.09 13.33 46.19 40 46.19 53.33 23.09 40 0"/><path class="cls-2" d="M35.51,26.1v3a2.9,2.9,0,0,1-2.89,2.89H20.71A2.9,2.9,0,0,1,17.82,29V17.14a2.9,2.9,0,0,1,2.89-2.89h2.94l2,2H20.71a.91.91,0,0,0-.89.89V29a.91.91,0,0,0,.89.89H32.62a.91.91,0,0,0,.89-.89V24.11h0Z"/><path class="cls-2" d="M35.56,15.77v5.61l-7.13-7.13H34A1.52,1.52,0,0,1,35.56,15.77Z"/><rect class="cls-2" x="22.91" y="19.55" width="10.51" height="3.73" transform="translate(-6.89 26.19) rotate(-45)"/></g></g></svg>