<?xml version="1.0" encoding="utf-8"?>
<!-- Generator: Adobe Illustrator 21.0.0, SVG Export Plug-In . SVG Version: 6.00 Build 0)  -->
<svg version="1.1" id="Layer_1" xmlns="http://www.w3.org/2000/svg" xmlns:xlink="http://www.w3.org/1999/xlink" x="0px" y="0px"
	 viewBox="0 0 20 25.2" style="enable-background:new 0 0 20 25.2;" xml:space="preserve">
<style type="text/css">
	.st0{fill:#2E499F;}
	.st1{fill:#F69320;}
	.st2{fill:#FFFFFF;}
	.st3{fill:#E1E2E2;}
</style>
<g>
	<g>
		<path class="st0" d="M10.2,25c-1.6,0-3-0.3-4.1-0.8S4.4,23,4.4,22.3C4.4,21.6,5,21,6,20.5s2.4-0.7,3.8-0.7s2.8,0.3,3.9,0.7
			c1.2,0.5,1.8,1.2,1.8,1.9c0,0.6-0.5,1.3-1.4,1.7C13.2,24.7,11.8,25,10.2,25z"/>
		<g>
			<path class="st1" d="M9.8,19.8c1.4,0,2.8,0.2,3.9,0.7s1.8,1.2,1.8,1.9c0,0.6-0.5,1.2-1.4,1.7c-1,0.5-2.4,0.8-4,0.8
				s-3-0.3-4.1-0.8s-1.6-1.2-1.6-1.8S5,21,6,20.6C7,20.1,8.4,19.8,9.8,19.8 M9.8,19.8C8.4,19.8,7,20,6,20.5c-2.1,1-2.2,2.6,0.1,3.7
				c1.2,0.5,2.7,0.8,4.1,0.8s3-0.3,4-0.8c2.1-1,1.8-2.7-0.5-3.7C12.6,20,11.2,19.8,9.8,19.8L9.8,19.8z"/>
		</g>
	</g>
	<path class="st2" d="M12.6,23.4c-1.3,0.7-3.6,0.7-5,0s-1.4-1.7-0.1-2.3c1.3-0.6,3.5-0.6,4.9,0C13.7,21.8,13.9,22.8,12.6,23.4z"/>
	<path class="st1" d="M11.1,22.8c-0.6,0.3-1.6,0.3-2.2,0c-0.6-0.3-0.7-0.7-0.1-1c0.6-0.3,1.6-0.3,2.2,0C11.7,22,11.7,22.5,11.1,22.8
		z"/>
	<g>
		<g>
			<g>
				<polygon class="st3" points="8.6,13.3 6.3,9.4 8.6,5.5 8,5.5 5.7,9.4 8,13.3 				"/>
				<polygon class="st3" points="9.7,13.3 7.4,9.4 9.7,5.5 9.1,5.5 6.8,9.4 9.1,13.3 				"/>
				<polygon class="st3" points="10.7,13.3 8.4,9.4 10.7,5.5 10.1,5.5 7.8,9.4 10.1,13.3 				"/>
				<polygon class="st3" points="11.8,13.3 9.5,9.4 11.8,5.5 11.2,5.5 8.9,9.4 11.2,13.3 				"/>
			</g>
			<g>
				<polygon class="st1" points="11.2,13.3 13.5,9.4 11.2,5.5 11.8,5.5 14.1,9.4 11.8,13.3 				"/>
				<polygon class="st1" points="10.1,13.3 12.4,9.4 10.1,5.5 10.7,5.5 13.1,9.4 10.8,13.3 				"/>
				<polygon class="st1" points="9.1,13.3 11.4,9.4 9.1,5.5 9.7,5.5 12,9.4 9.7,13.3 				"/>
				<polygon class="st1" points="8,13.3 10.3,9.4 8,5.5 8.6,5.5 10.9,9.4 8.6,13.3 				"/>
			</g>
		</g>
		<g>
			<g>
				<g>
					<path class="st0" d="M18.4,9.4c0-4.7-3.8-8.4-8.5-8.4S1.5,4.7,1.5,9.4c0,0.7,0.1,1.4,0.3,2.1l0,0c0.9,3.7,3.5,4.8,8.2,9.8l0,0
						l0,0l0,0l0,0c4.7-4.9,7.3-6.1,8.2-9.8l0,0C18.3,10.8,18.4,10.1,18.4,9.4z M9.9,15.2c-2.9,0-5.2-2.1-5.7-4.8
						c-0.1-0.3-0.1-0.6-0.1-0.9c0-3.2,2.6-5.8,5.8-5.8s5.8,2.6,5.8,5.8c0,0.3,0,0.6-0.1,0.9C15.1,13.1,12.8,15.2,9.9,15.2z"/>
				</g>
			</g>
		</g>
	</g>
</g>
</svg>
