<?xml version="1.0" encoding="utf-8"?>
<!-- Generator: Adobe Illustrator 21.0.0, SVG Export Plug-In . SVG Version: 6.00 Build 0)  -->
<svg version="1.1" id="Layer_1" xmlns="http://www.w3.org/2000/svg" xmlns:xlink="http://www.w3.org/1999/xlink" x="0px" y="0px"
	 viewBox="0 0 40 40" style="enable-background:new 0 0 40 40;" xml:space="preserve">
<style type="text/css">
	.st0{opacity:0.29;fill:#A5A5A5;}
	.st1{fill:#F7941D;}
	.st2{fill:#A5A5A5;}
</style>
<circle class="st0" cx="20" cy="20" r="12.8"/>
<g>
	<path class="st1" d="M20,1c10.5,0,19,8.5,19,19s-8.5,19-19,19S1,30.5,1,20S9.5,1,20,1 M20,0C9,0,0,9,0,20c0,11,9,20,20,20
		c11,0,20-9,20-20C40,9,31,0,20,0L20,0z"/>
</g>
<path class="st1" d="M17.9,26V14c0-0.2,0.2-0.3,0.3-0.1l6,6c0.1,0.1,0.1,0.2,0,0.3l-6,6C18.1,26.3,17.9,26.2,17.9,26z"/>
<path class="st2" d="M20,6.8C12.7,6.8,6.8,12.7,6.8,20S12.7,33.2,20,33.2S33.2,27.3,33.2,20S27.3,6.8,20,6.8z M20,32.8
	c-7.1,0-12.8-5.7-12.8-12.8S12.9,7.2,20,7.2c7.1,0,12.8,5.7,12.8,12.8S27.1,32.8,20,32.8z"/>
</svg>
