<?xml version="1.0" encoding="utf-8"?>
<!-- Generator: Adobe Illustrator 21.0.0, SVG Export Plug-In . SVG Version: 6.00 Build 0)  -->
<svg version="1.1" id="Layer_1" xmlns="http://www.w3.org/2000/svg" xmlns:xlink="http://www.w3.org/1999/xlink" x="0px" y="0px"
	 viewBox="0 0 60 60" style="enable-background:new 0 0 60 60;" xml:space="preserve">
<style type="text/css">
	.st0{fill:#FFFFFF;}
</style>
<g id="XMLID_801_">
	<g id="XMLID_802_">
		<path class="st0" d="M12.9,21.3V58h-10V21.3H12.9 M13.9,19.3H1.9c-0.5,0-1,0.4-1,1V59c0,0.5,0.4,1,1,1h12.1c0.5,0,1-0.4,1-1V20.2
			C14.9,19.7,14.5,19.3,13.9,19.3L13.9,19.3z"/>
	</g>
	<g id="XMLID_803_">
		<path class="st0" d="M7.9,2c1.6,0,3.1,0.6,4.2,1.7c1.1,1.1,1.7,2.6,1.7,4.2c0,3.3-2.7,6-6,6c-3.3,0-6-2.7-6-6C1.9,4.7,4.6,2,7.9,2
			 M7.9,0c-4.4,0-8,3.6-8,8c0,4.4,3.6,8,8,8c4.4,0,8-3.6,8-8C15.9,3.6,12.3,0,7.9,0L7.9,0z"/>
	</g>
	<g id="XMLID_804_">
		<path class="st0" d="M44.6,20.3c11.1,0,13.4,7,13.4,17.4V58h-10V40.2c0-4.2,0-11.3-7.3-11.3c-7.3,0-8.3,5.9-8.3,11V58h-10V21.3H32
			v1.5v5.1l3.5-3.8C36.8,22.7,39.7,20.3,44.6,20.3 M44.6,18.3c-4.8,0-8.4,2.1-10.6,4.5v-2.5c0-0.5-0.4-1-1-1H21.5c-0.5,0-1,0.4-1,1
			V59c0,0.5,0.4,1,1,1h12c0.5,0,1-0.4,1-1V39.8c0-6.5,1.8-9,6.3-9c4.9,0,5.3,4,5.3,9.3V59c0,0.5,0.4,1,1,1h12c0.5,0,1-0.4,1-1V37.8
			C60.1,28.1,58.2,18.3,44.6,18.3L44.6,18.3z"/>
	</g>
</g>
</svg>
