<?xml version="1.0" encoding="utf-8"?>
<!-- Generator: Adobe Illustrator 21.0.0, SVG Export Plug-In . SVG Version: 6.00 Build 0)  -->
<svg version="1.1" id="Layer_1" xmlns="http://www.w3.org/2000/svg" xmlns:xlink="http://www.w3.org/1999/xlink" x="0px" y="0px"
	 viewBox="0 0 145 95.8" style="enable-background:new 0 0 145 95.8;" xml:space="preserve">
<style type="text/css">
	.st0{fill-rule:evenodd;clip-rule:evenodd;fill:#21409A;}
	.st1{fill-rule:evenodd;clip-rule:evenodd;fill:#F7941D;}
	.st2{fill:#21409A;}
</style>
<g>
	<path class="st0" d="M28.7,1.6h-2.8V0h14.3v1.6c-0.7,0-1.5,0.1-2.5,0.1v1.6c0,20.8,0,41.5,0,62.3c0,2.5,2,4.5,4.3,4.6
		c2.5,0,4.5-2,4.5-4.6V3.9V1.7h-2.8V0h14.6v1.6h-2.8v1.6c0,19.2,0,38.4,0,57.7c0,4.3-2.2,7.3-6.1,9.3c-5.9,3.1-14.1,2.2-18.7-3.2
		c-1.3-1.5-2-3.3-2-5.3c0-19.1,0-38.2,0-57.4V1.6z"/>
	<path class="st0" d="M116.3,69.6h2.7c0,0.6,0.1,1.1,0.1,1.6h-14.4v-1.6c0.8,0,1.6-0.1,2.4-0.1V1.7c-0.8,0-1.5-0.1-2.4-0.1
		c0-0.5,0-1-0.1-1.6H119v1.6h-2.7V69.6z"/>
	<path class="st1" d="M100.7,55.3c-0.7,0.4-2.2,0.9-3.1,1.2c-0.5,0.2-1.1,0.3-1.5,0.4c-1.5,0.3-2.4,0.5-3.8,0.7
		c-1.7,0.2-4.2,0.1-5.6-0.2c-0.5-0.1-0.7-0.1-1-0.5c1.5-3.4,1.6-7.7,1.4-10.2c0.4-1.3,0.6-2.5,1.2-3.7c0.5-0.9,1-2.3,1.5-3.3
		c1.6-2.9,3.2-5.4,5.2-8.1c0.8-1.1-1.9-2.3-3-1.5c-1,0.7-3.5,3.5-5.2,5.5c-0.2,0.2-1.4,1.8-2.1,2.8c0.3-0.4-2-3.2-2.3-3.6
		c-0.7-1-1.5-2-2.4-2.9c-2.5-2.6-5.8-5.4-9.7-5.7c0,0,0,0,0,0c-2-0.1-4.3,0.6-5.5,2c-1.9,2.1-2.3,5.2-2.1,7.9
		c0.1,1.6,0.5,3.2,0.9,4.7c0.6,2.2,1.4,4.4,2.5,6.4c0.8,1.5,1.7,3,2.7,4.3c1.5,2.1,3.5,4,5.5,5.7c1.1,1,1,2,0.7,3.2
		c-0.5,2.2-1.1,4.4-1.7,6.7c-0.3,1.1,0.3,2.6,1.4,2.9c1.5,0.5,3-0.3,4.1-1.2c1.2-1,1.7-2.5,2.5-3.8c1-1.7,2.4-2.2,3.2-2.5
		c1.5-0.6,3-0.1,4.6-0.1c4.7-0.1,8.1-3.2,11.3-5.9c0.4-0.3,0.8-0.8,0.8-1.2C101.3,55.1,100.7,55.3,100.7,55.3z M80.3,46.1
		c0.1-0.1,0.1-0.3,0.1-0.3c-1.1,2.2-1.9,5.7-3.2,8.2c0,0-1.6-1.1-1.7-1.1c-0.7-0.4-1.3-1-1.9-1.6c-0.3-0.3-0.7-0.7-1-1
		c-0.3-0.3-0.6-0.7-0.9-1c-0.3-0.3-0.7-0.8-0.9-1.2c-1.2-1.6-2-3.2-2.7-5c-0.4-1-0.7-2.2-1-3.3c-0.6-2.8-1.3-7.5,1.3-9.7
		c4.1-3.3,8.2,2.3,9.8,5.2c0.5,0.8,0.9,1.7,1.2,2.6c0.8,2,1.9,4.8-0.1,6.5c-0.6,0.5-1.8,1.2-0.9,2.4c0.7-0.6,1.4-0.8,1.9-1.1
		C80.4,45.8,80.2,46.1,80.3,46.1z"/>
</g>
<path class="st2" d="M5.8,92.4h1.5c0,0.5-0.1,0.9-0.3,1.4c-0.2,0.5-0.4,0.8-0.7,1.1c-0.6,0.6-1.4,0.9-2.3,0.9
	c-0.8,0-1.6-0.2-2.2-0.8c-0.6-0.6-1-1.3-1.2-2.3c-0.1-0.5-0.2-1-0.2-1.6c0-0.7,0.1-1.3,0.2-1.8c0.5-2,1.6-3,3.4-3
	c0.8,0,1.5,0.2,2.1,0.7c0.8,0.6,1.2,1.5,1.2,2.5H5.8c0-0.4-0.2-0.8-0.4-1.1c-0.4-0.5-0.9-0.7-1.6-0.6c-0.4,0-0.7,0.2-0.9,0.4
	c-0.3,0.3-0.5,0.6-0.6,1S2,90.2,2,90.8c0,0.8,0.1,1.4,0.2,1.9c0.3,0.7,0.6,1.1,1.1,1.3c0.2,0.1,0.3,0.1,0.6,0.1c0.2,0,0.5,0,0.7-0.1
	c0.5-0.2,0.8-0.4,1-0.8C5.6,93.1,5.7,92.8,5.8,92.4z"/>
<path class="st2" d="M8.5,86.2h1.6v7.9h3.7v1.6H8.5V86.2z"/>
<path class="st2" d="M16.5,86.2v9.5h-1.6v-9.5H16.5z"/>
<path class="st2" d="M18,86.2h5.6v1.6h-4V90h3.7v1.6h-3.7v2.5h4.2v1.6H18V86.2z"/>
<path class="st2" d="M25,86.2h1.6l3.1,6.6v-6.6h1.6v9.5h-1.6l-3.2-6.7v6.7H25V86.2z"/>
<path class="st2" d="M32.1,86.2h6.2v1.6h-2.3v7.9h-1.6v-7.9h-2.4V86.2z"/>
<path class="st2" d="M44.9,89.1h-1.5c0-0.4-0.1-0.7-0.4-1c-0.3-0.3-0.7-0.4-1.2-0.5c-0.9,0-1.4,0.3-1.4,1.1c0,0.3,0,0.5,0.1,0.6
	c0.1,0.1,0.2,0.2,0.4,0.3c0.1,0.1,0.8,0.3,2,0.6c0.9,0.2,1.5,0.5,1.8,0.9c0.3,0.4,0.5,1,0.5,1.6c0,0.5-0.1,1-0.3,1.4
	c-0.2,0.4-0.4,0.8-0.7,1c-0.5,0.4-1.3,0.6-2.4,0.6c-0.3,0-0.5,0-0.9-0.1c-0.4-0.1-0.8-0.3-1-0.5c-0.7-0.6-1-1.3-1.1-2.4h1.6
	c0,0.4,0.1,0.7,0.3,0.9c0.3,0.4,0.8,0.6,1.5,0.5c0.6,0,1-0.2,1.2-0.4c0.2-0.2,0.3-0.5,0.3-0.8c0-0.3-0.1-0.5-0.3-0.7
	c-0.2-0.2-0.6-0.4-1.3-0.6c-1-0.2-1.5-0.4-1.7-0.4c-0.9-0.4-1.4-1.1-1.4-2.2c0-0.1,0-0.2,0-0.3c0.1-0.8,0.3-1.4,0.8-1.8
	c0.5-0.5,1.2-0.7,2.1-0.7c1.2,0,2.1,0.4,2.6,1.2c0.3,0.5,0.5,1,0.5,1.6C45,89,45,89.1,44.9,89.1z"/>
<path class="st2" d="M46.3,86.2h1.4v1.5c0,0.7-0.3,1.3-0.8,1.6c-0.1,0.1-0.4,0.2-0.7,0.2V89c0.3-0.1,0.5-0.2,0.7-0.5
	c0.2-0.3,0.2-0.5,0.1-0.7h-0.8V86.2z"/>
<path class="st2" d="M53.8,86.2v9.5h-1.6v-9.5H53.8z"/>
<path class="st2" d="M55.2,86.2h1.6l3.1,6.6v-6.6h1.6v9.5h-1.6l-3.2-6.7v6.7h-1.6V86.2z"/>
<path class="st2" d="M62.3,86.2h6.2v1.6h-2.3v7.9h-1.6v-7.9h-2.4V86.2z"/>
<path class="st2" d="M69.5,86.2h5.6v1.6h-4V90h3.7v1.6h-3.7v2.5h4.2v1.6h-5.8V86.2z"/>
<path class="st2" d="M76.6,95.8v-9.5h4.3c0.4,0,0.8,0.1,1.1,0.4c0.3,0.3,0.6,0.7,0.7,1.1s0.2,0.9,0.2,1.2c0,0.3,0,0.5-0.1,0.8
	c-0.1,0.4-0.2,0.7-0.4,0.9c-0.1,0.2-0.3,0.4-0.6,0.6c0.3,0.3,0.5,0.4,0.5,0.4c0.2,0.2,0.3,0.5,0.4,0.9c0,0.4,0.1,1.1,0.1,2.1
	c0,0.4,0.1,0.6,0.3,0.8v0.4h-1.7c-0.1-0.3-0.2-0.6-0.2-0.9V93c0-0.6-0.3-1-1-1h-1.9v3.8H76.6z M78.2,87.9v2.5h2.2
	c0.2,0,0.4-0.1,0.6-0.4c0.2-0.3,0.3-0.6,0.3-1.1c0-0.7-0.3-1.1-1-1.1H78.2z"/>
<path class="st2" d="M84.3,86.2h5.6v1.6h-4V90h3.7v1.6h-3.7v2.5h4.2v1.6h-5.8V86.2z"/>
<path class="st2" d="M97,89.1h-1.5c0-0.4-0.1-0.7-0.4-1c-0.3-0.3-0.7-0.4-1.2-0.5c-0.9,0-1.4,0.3-1.4,1.1c0,0.3,0,0.5,0.1,0.6
	c0.1,0.1,0.2,0.2,0.4,0.3c0.1,0.1,0.8,0.3,2,0.6c0.9,0.2,1.5,0.5,1.8,0.9c0.3,0.4,0.5,1,0.5,1.6c0,0.5-0.1,1-0.3,1.4
	c-0.2,0.4-0.4,0.8-0.7,1c-0.5,0.4-1.3,0.6-2.4,0.6c-0.3,0-0.5,0-0.9-0.1c-0.4-0.1-0.8-0.3-1-0.5c-0.7-0.6-1-1.3-1.1-2.4h1.6
	c0,0.4,0.1,0.7,0.3,0.9c0.3,0.4,0.8,0.6,1.5,0.5c0.6,0,1-0.2,1.2-0.4c0.2-0.2,0.3-0.5,0.3-0.8c0-0.3-0.1-0.5-0.3-0.8
	c-0.2-0.2-0.6-0.4-1.3-0.6c-1-0.2-1.5-0.4-1.7-0.4c-0.9-0.4-1.4-1.1-1.4-2.2c0-0.1,0-0.2,0-0.3c0.1-0.8,0.3-1.4,0.8-1.8
	c0.5-0.5,1.2-0.7,2.1-0.7c1.2,0,2.1,0.4,2.6,1.2c0.3,0.5,0.5,1,0.5,1.6C97.1,89,97.1,89.1,97,89.1z"/>
<path class="st2" d="M97.8,86.2h6.2v1.6h-2.3v7.9h-1.6v-7.9h-2.4V86.2z"/>
<path class="st2" d="M110.6,89.1h-1.5c0-0.4-0.1-0.7-0.4-1c-0.3-0.3-0.7-0.4-1.2-0.5c-0.9,0-1.4,0.3-1.4,1.1c0,0.3,0,0.5,0.1,0.6
	c0.1,0.1,0.2,0.2,0.4,0.3c0.1,0.1,0.8,0.3,2,0.6c0.9,0.2,1.5,0.5,1.8,0.9c0.3,0.4,0.5,1,0.5,1.6c0,0.5-0.1,1-0.3,1.4
	c-0.2,0.4-0.4,0.8-0.7,1c-0.5,0.4-1.3,0.6-2.4,0.6c-0.3,0-0.5,0-0.9-0.1c-0.4-0.1-0.8-0.3-1-0.5c-0.7-0.6-1-1.3-1.1-2.4h1.6
	c0,0.4,0.1,0.7,0.3,0.9c0.3,0.4,0.8,0.6,1.5,0.5c0.6,0,1-0.2,1.2-0.4c0.2-0.2,0.3-0.5,0.3-0.8c0-0.3-0.1-0.5-0.3-0.8
	c-0.2-0.2-0.6-0.4-1.3-0.6c-1-0.2-1.5-0.4-1.7-0.4c-0.9-0.4-1.4-1.1-1.4-2.2c0-0.1,0-0.2,0-0.3c0.1-0.8,0.3-1.4,0.8-1.8
	c0.5-0.5,1.2-0.7,2.1-0.7c1.2,0,2.1,0.4,2.6,1.2c0.3,0.5,0.5,1,0.5,1.6C110.7,89,110.7,89.1,110.6,89.1z"/>
<path class="st2" d="M115,86.2h5.5v1.6h-3.9V90h3.4v1.6h-3.4v4.1H115V86.2z"/>
<path class="st2" d="M123,86.2v9.5h-1.6v-9.5H123z"/>
<path class="st2" d="M124.5,95.8v-9.5h4.3c0.4,0,0.8,0.1,1.1,0.4c0.3,0.3,0.6,0.7,0.7,1.1s0.2,0.9,0.2,1.2c0,0.3,0,0.5-0.1,0.8
	c-0.1,0.4-0.2,0.7-0.4,0.9c-0.1,0.2-0.3,0.4-0.6,0.6c0.3,0.3,0.5,0.4,0.5,0.4c0.2,0.2,0.3,0.5,0.4,0.9c0,0.4,0.1,1.1,0.1,2.1
	c0,0.4,0.1,0.6,0.3,0.8v0.4h-1.7c-0.1-0.3-0.2-0.6-0.2-0.9V93c0-0.6-0.3-1-1-1h-1.9v3.8H124.5z M126.1,87.9v2.5h2.2
	c0.2,0,0.4-0.1,0.6-0.4c0.2-0.3,0.3-0.6,0.3-1.1c0-0.7-0.3-1.1-1-1.1H126.1z"/>
<path class="st2" d="M137.9,89.1h-1.5c0-0.4-0.1-0.7-0.4-1c-0.3-0.3-0.7-0.4-1.2-0.5c-0.9,0-1.4,0.3-1.4,1.1c0,0.3,0,0.5,0.1,0.6
	c0.1,0.1,0.2,0.2,0.4,0.3c0.1,0.1,0.8,0.3,2,0.6c0.9,0.2,1.5,0.5,1.8,0.9c0.3,0.4,0.5,1,0.5,1.6c0,0.5-0.1,1-0.3,1.4
	c-0.2,0.4-0.4,0.8-0.7,1c-0.5,0.4-1.3,0.6-2.4,0.6c-0.3,0-0.5,0-0.9-0.1c-0.4-0.1-0.8-0.3-1-0.5c-0.7-0.6-1-1.4-1.1-2.4h1.6
	c0,0.4,0.1,0.7,0.3,0.9c0.3,0.4,0.8,0.6,1.5,0.5c0.6,0,1-0.2,1.2-0.4c0.2-0.2,0.3-0.5,0.3-0.8c0-0.3-0.1-0.5-0.3-0.8
	c-0.2-0.2-0.6-0.4-1.3-0.6c-1-0.2-1.5-0.4-1.7-0.4c-0.9-0.4-1.4-1.1-1.4-2.2c0-0.1,0-0.2,0-0.3c0.1-0.8,0.3-1.4,0.8-1.8
	c0.5-0.5,1.2-0.7,2.1-0.7c1.2,0,2.1,0.4,2.6,1.2c0.3,0.5,0.5,1,0.5,1.6C137.9,89,137.9,89.1,137.9,89.1z"/>
<path class="st2" d="M138.6,86.2h6.2v1.6h-2.3v7.9H141v-7.9h-2.4V86.2z"/>
</svg>
