<?xml version="1.0" encoding="utf-8"?>
<!-- Generator: Adobe Illustrator 21.0.0, SVG Export Plug-In . SVG Version: 6.00 Build 0)  -->
<svg version="1.1" id="Layer_1" xmlns="http://www.w3.org/2000/svg" xmlns:xlink="http://www.w3.org/1999/xlink" x="0px" y="0px"
	 viewBox="0 0 60 49.8" style="enable-background:new 0 0 60 49.8;" xml:space="preserve">
<style type="text/css">
	.st0{fill:#FFFFFF;}
	.st1{fill:#F7941D;}
</style>
<title>Asset 2</title>
<g id="Layer_2">
	<g id="Layer_1-2">
		<g>
			<path class="st0" d="M6.9,0.9H5.5V0H13v0.9h-1.3v1c0,11.7,0,23.5,0,35.2c-0.1,1.4,0.9,2.5,2.3,2.6l0,0c1.4-0.1,2.5-1.1,2.4-2.5
				v-0.1V1h-1.5V0h7.7v0.9H21v0.9c0,10.9,0,21.7,0,32.6c0,2.2-1.2,4.3-3.2,5.2c-3.3,1.9-7.4,1.1-9.8-1.8c-0.7-0.8-1.1-2-1.1-3
				c0-10.8,0-21.6,0-32.5L6.9,0.9z"/>
			<path class="st0" d="M53.1,39.3h1.5v0.9h-7.6v-0.8h1.3V1h-1.3V0h7.5v0.9h-1.4V39.3z"/>
			<path class="st1" d="M44.8,31.2l-1.6,0.7l-0.8,0.2l-2,0.4c-1,0.1-2,0.1-2.9-0.1c-0.2-0.1-0.4,0-0.5-0.3c0.7-1.8,0.9-3.8,0.7-5.7
				c0.2-0.7,0.3-1.4,0.7-2c0.2-0.5,0.6-1.3,0.8-1.9c0.8-1.6,1.7-3.1,2.8-4.6c0.4-0.6-1-1.3-1.6-0.8c-1,1-2,2-2.8,3.1l-1.1,1.6
				c0.2-0.2-1.1-1.8-1.2-2c-0.4-0.6-0.8-1.1-1.2-1.6c-1.3-1.5-3-3-5.2-3.2l0,0c-1.1-0.1-2.2,0.3-2.9,1.1c-1,1.2-1.2,2.9-1.1,4.4
				c0.1,0.9,0.2,1.8,0.5,2.7c0.3,1.3,0.7,2.5,1.3,3.7c0.4,0.8,0.9,1.6,1.4,2.5c0.9,1.2,1.9,2.3,2.9,3.3c0.5,0.5,0.7,1.1,0.4,1.8
				l-0.9,3.8c-0.2,0.7,0.2,1.3,0.7,1.6c0.8,0.2,1.6-0.1,2.2-0.7c0.6-0.7,1-1.4,1.3-2.2c0.4-0.7,1-1.1,1.7-1.4
				c0.8-0.3,1.6-0.1,2.5-0.1c2.5-0.1,4.3-1.8,6-3.4c0.2-0.2,0.3-0.4,0.4-0.7C45.1,31.2,44.8,31.2,44.8,31.2z M34.1,26.1v-0.2
				c-0.6,1.2-1.1,3.2-1.6,4.7l-0.9-0.7l-1-0.9L30,28.4l-0.5-0.6L29,27.2c-0.7-0.8-1.1-1.8-1.5-2.8c-0.2-0.7-0.4-1.2-0.5-1.9
				c-0.3-1.6-0.7-4.3,0.7-5.5s4.3,1.3,5.2,2.9c0.2,0.5,0.5,1,0.7,1.5c0.4,1.1,1,2.7,0,3.7c-1,1-0.9,0.7-0.5,1.3
				c0.3-0.2,0.7-0.5,1-0.7V26.1z"/>
		</g>
	</g>
</g>
<g>
	<path class="st0" d="M2.2,48.3h0.6c0,0.2,0,0.4-0.1,0.6c-0.1,0.2-0.2,0.4-0.3,0.5c-0.3,0.2-0.6,0.4-1,0.4c-0.4,0-0.7-0.1-0.9-0.4
		c-0.2-0.2-0.4-0.6-0.5-1C0,48.2,0,48,0,47.7c0-0.3,0-0.6,0.1-0.8c0.2-0.9,0.7-1.3,1.4-1.3c0.3,0,0.6,0.1,0.9,0.3
		c0.3,0.3,0.5,0.6,0.5,1.1H2.2c0-0.2-0.1-0.3-0.2-0.5c-0.1-0.2-0.4-0.3-0.6-0.3c-0.1,0-0.3,0.1-0.4,0.2c-0.1,0.1-0.2,0.3-0.3,0.4
		c-0.1,0.2-0.1,0.4-0.1,0.7c0,0.3,0,0.6,0.1,0.8C0.9,48.8,1,49,1.2,49c0.1,0,0.1,0,0.2,0c0.1,0,0.2,0,0.3,0C1.9,49,2,48.9,2.1,48.7
		C2.1,48.6,2.2,48.5,2.2,48.3z"/>
	<path class="st0" d="M3.4,45.7H4V49h1.5v0.7H3.4V45.7z"/>
	<path class="st0" d="M6.7,45.7v4H6v-4H6.7z"/>
	<path class="st0" d="M7.3,45.7h2.3v0.7H7.9v0.9h1.5V48H7.9v1h1.7v0.7H7.3V45.7z"/>
	<path class="st0" d="M10.2,45.7h0.7l1.3,2.7v-2.7h0.7v4h-0.7l-1.3-2.8v2.8h-0.7V45.7z"/>
	<path class="st0" d="M13.1,45.7h2.6v0.7h-0.9v3.3h-0.7v-3.3h-1V45.7z"/>
	<path class="st0" d="M18.5,46.9h-0.6c0-0.2,0-0.3-0.2-0.4c-0.1-0.1-0.3-0.2-0.5-0.2c-0.4,0-0.6,0.1-0.6,0.5c0,0.1,0,0.2,0,0.3
		c0,0,0.1,0.1,0.2,0.1c0,0.1,0.3,0.1,0.8,0.2c0.4,0.1,0.6,0.2,0.8,0.4s0.2,0.4,0.2,0.7c0,0.2,0,0.4-0.1,0.6
		c-0.1,0.2-0.2,0.3-0.3,0.4c-0.2,0.2-0.6,0.3-1,0.3c-0.1,0-0.2,0-0.4-0.1c-0.2-0.1-0.3-0.1-0.4-0.2c-0.3-0.2-0.4-0.6-0.4-1h0.6
		c0,0.2,0,0.3,0.1,0.4c0.1,0.2,0.3,0.2,0.6,0.2c0.2,0,0.4-0.1,0.5-0.2c0.1-0.1,0.1-0.2,0.1-0.3c0-0.1,0-0.2-0.1-0.3
		c-0.1-0.1-0.3-0.2-0.6-0.3c-0.4-0.1-0.6-0.2-0.7-0.2c-0.4-0.2-0.6-0.5-0.6-1c0,0,0-0.1,0-0.1c0-0.3,0.1-0.6,0.3-0.8
		c0.2-0.2,0.5-0.3,0.9-0.3c0.5,0,0.9,0.2,1.1,0.5C18.4,46.3,18.5,46.6,18.5,46.9C18.5,46.9,18.5,46.9,18.5,46.9z"/>
	<path class="st0" d="M19,45.7h0.6v0.6c0,0.3-0.1,0.5-0.3,0.7c-0.1,0-0.1,0.1-0.3,0.1v-0.3c0.1,0,0.2-0.1,0.3-0.2
		c0.1-0.1,0.1-0.2,0.1-0.3H19V45.7z"/>
	<path class="st0" d="M22.1,45.7v4h-0.7v-4H22.1z"/>
	<path class="st0" d="M22.7,45.7h0.7l1.3,2.7v-2.7h0.7v4h-0.7l-1.3-2.8v2.8h-0.7V45.7z"/>
	<path class="st0" d="M25.7,45.7h2.6v0.7h-0.9v3.3h-0.7v-3.3h-1V45.7z"/>
	<path class="st0" d="M28.7,45.7H31v0.7h-1.7v0.9h1.5V48h-1.5v1h1.7v0.7h-2.4V45.7z"/>
	<path class="st0" d="M31.6,49.7v-4h1.8c0.2,0,0.3,0.1,0.5,0.2c0.1,0.1,0.2,0.3,0.3,0.5c0,0.2,0.1,0.4,0.1,0.5c0,0.1,0,0.2,0,0.3
		c0,0.2-0.1,0.3-0.2,0.4c-0.1,0.1-0.1,0.2-0.3,0.2c0.1,0.1,0.2,0.2,0.2,0.2c0.1,0.1,0.1,0.2,0.2,0.4c0,0.2,0,0.5,0,0.9
		c0,0.2,0,0.3,0.1,0.3v0.1h-0.7c-0.1-0.1-0.1-0.2-0.1-0.4v-0.8c0-0.3-0.1-0.4-0.4-0.4h-0.8v1.6H31.6z M32.3,46.4v1h0.9
		c0.1,0,0.2,0,0.3-0.1c0.1-0.1,0.1-0.3,0.1-0.4c0-0.3-0.1-0.4-0.4-0.4H32.3z"/>
	<path class="st0" d="M34.8,45.7h2.3v0.7h-1.7v0.9H37V48h-1.5v1h1.7v0.7h-2.4V45.7z"/>
	<path class="st0" d="M40.1,46.9h-0.6c0-0.2,0-0.3-0.2-0.4c-0.1-0.1-0.3-0.2-0.5-0.2c-0.4,0-0.6,0.1-0.6,0.5c0,0.1,0,0.2,0,0.3
		c0,0,0.1,0.1,0.2,0.1c0,0.1,0.3,0.1,0.8,0.2c0.4,0.1,0.6,0.2,0.8,0.4c0.1,0.2,0.2,0.4,0.2,0.7c0,0.2,0,0.4-0.1,0.6
		c-0.1,0.2-0.2,0.3-0.3,0.4c-0.2,0.2-0.6,0.3-1,0.3c-0.1,0-0.2,0-0.4-0.1c-0.2-0.1-0.3-0.1-0.4-0.2c-0.3-0.2-0.4-0.6-0.4-1h0.6
		c0,0.2,0,0.3,0.1,0.4c0.1,0.2,0.3,0.2,0.6,0.2c0.2,0,0.4-0.1,0.5-0.2c0.1-0.1,0.1-0.2,0.1-0.3c0-0.1,0-0.2-0.1-0.3
		c-0.1-0.1-0.3-0.2-0.6-0.3c-0.4-0.1-0.6-0.2-0.7-0.2c-0.4-0.2-0.6-0.5-0.6-1c0,0,0-0.1,0-0.1c0-0.3,0.1-0.6,0.3-0.8
		c0.2-0.2,0.5-0.3,0.9-0.3c0.5,0,0.9,0.2,1.1,0.5C40.1,46.3,40.1,46.6,40.1,46.9C40.1,46.9,40.1,46.9,40.1,46.9z"/>
	<path class="st0" d="M40.4,45.7H43v0.7h-0.9v3.3h-0.7v-3.3h-1V45.7z"/>
	<path class="st0" d="M45.8,46.9h-0.6c0-0.2,0-0.3-0.2-0.4c-0.1-0.1-0.3-0.2-0.5-0.2c-0.4,0-0.6,0.1-0.6,0.5c0,0.1,0,0.2,0,0.3
		c0,0,0.1,0.1,0.2,0.1c0,0.1,0.3,0.1,0.8,0.2c0.4,0.1,0.6,0.2,0.8,0.4c0.1,0.2,0.2,0.4,0.2,0.7c0,0.2,0,0.4-0.1,0.6
		c-0.1,0.2-0.2,0.3-0.3,0.4c-0.2,0.2-0.6,0.3-1,0.3c-0.1,0-0.2,0-0.4-0.1c-0.2-0.1-0.3-0.1-0.4-0.2c-0.3-0.2-0.4-0.6-0.4-1h0.6
		c0,0.2,0,0.3,0.1,0.4c0.1,0.2,0.3,0.2,0.6,0.2c0.2,0,0.4-0.1,0.5-0.2c0.1-0.1,0.1-0.2,0.1-0.3c0-0.1,0-0.2-0.1-0.3
		c-0.1-0.1-0.3-0.2-0.6-0.3c-0.4-0.1-0.6-0.2-0.7-0.2c-0.4-0.2-0.6-0.5-0.6-1c0,0,0-0.1,0-0.1c0-0.3,0.1-0.6,0.3-0.8
		c0.2-0.2,0.5-0.3,0.9-0.3c0.5,0,0.9,0.2,1.1,0.5C45.7,46.3,45.8,46.6,45.8,46.9C45.8,46.9,45.8,46.9,45.8,46.9z"/>
	<path class="st0" d="M47.6,45.7h2.3v0.7h-1.6v0.9h1.4V48h-1.4v1.7h-0.7V45.7z"/>
	<path class="st0" d="M50.9,45.7v4h-0.7v-4H50.9z"/>
	<path class="st0" d="M51.6,49.7v-4h1.8c0.2,0,0.3,0.1,0.5,0.2c0.1,0.1,0.2,0.3,0.3,0.5c0,0.2,0.1,0.4,0.1,0.5c0,0.1,0,0.2,0,0.3
		c0,0.2-0.1,0.3-0.2,0.4c-0.1,0.1-0.1,0.2-0.3,0.2c0.1,0.1,0.2,0.2,0.2,0.2C54,48,54,48.2,54,48.3c0,0.2,0,0.5,0,0.9
		c0,0.2,0,0.3,0.1,0.3v0.1h-0.7c-0.1-0.1-0.1-0.2-0.1-0.4v-0.8c0-0.3-0.1-0.4-0.4-0.4h-0.8v1.6H51.6z M52.2,46.4v1h0.9
		c0.1,0,0.2,0,0.3-0.1c0.1-0.1,0.1-0.3,0.1-0.4c0-0.3-0.1-0.4-0.4-0.4H52.2z"/>
	<path class="st0" d="M57.1,46.9h-0.6c0-0.2,0-0.3-0.2-0.4c-0.1-0.1-0.3-0.2-0.5-0.2c-0.4,0-0.6,0.1-0.6,0.5c0,0.1,0,0.2,0,0.3
		c0,0,0.1,0.1,0.2,0.1c0,0.1,0.3,0.1,0.8,0.2c0.4,0.1,0.6,0.2,0.8,0.4c0.1,0.2,0.2,0.4,0.2,0.7c0,0.2,0,0.4-0.1,0.6
		c-0.1,0.2-0.2,0.3-0.3,0.4c-0.2,0.2-0.6,0.3-1,0.3c-0.1,0-0.2,0-0.4-0.1c-0.2-0.1-0.3-0.1-0.4-0.2c-0.3-0.2-0.4-0.6-0.4-1h0.6
		c0,0.2,0,0.3,0.1,0.4c0.1,0.2,0.3,0.2,0.6,0.2c0.2,0,0.4-0.1,0.5-0.2c0.1-0.1,0.1-0.2,0.1-0.3c0-0.1,0-0.2-0.1-0.3
		c-0.1-0.1-0.3-0.2-0.6-0.3c-0.4-0.1-0.6-0.2-0.7-0.2c-0.4-0.2-0.6-0.5-0.6-1c0,0,0-0.1,0-0.1c0-0.3,0.1-0.6,0.3-0.8
		c0.2-0.2,0.5-0.3,0.9-0.3c0.5,0,0.9,0.2,1.1,0.5C57,46.3,57.1,46.6,57.1,46.9C57.1,46.9,57.1,46.9,57.1,46.9z"/>
	<path class="st0" d="M57.4,45.7H60v0.7h-0.9v3.3h-0.7v-3.3h-1V45.7z"/>
</g>
</svg>
