<svg xmlns="http://www.w3.org/2000/svg" viewBox="0 0 20.2 20.2"><defs><style>.cls-1{fill:#fff;}</style></defs><g id="Layer_2" data-name="Layer 2"><g id="Layer_1-2" data-name="Layer 1"><path class="cls-1" d="M18.86,4.23C17.92,3.26,17,2.3,16,1.35A4.36,4.36,0,0,0,12.86,0h-7A1.37,1.37,0,0,0,5,.26a1.44,1.44,0,0,0-.58,1.23V11l-.31.05c-.29,0-.56.09-.82.15a4.09,4.09,0,0,0-1.5.73.39.39,0,0,0-.16.46.37.37,0,0,0,.38.27h0a.92.92,0,0,0,.3-.14,3.79,3.79,0,0,1,2.13-.71,3.71,3.71,0,0,1,1.59.38,3.61,3.61,0,0,1,2.13,3.12A3.74,3.74,0,0,1,4.52,19.4a3.77,3.77,0,0,1-1.1-.17A3.7,3.7,0,0,1,1,16.87a3.83,3.83,0,0,1,.47-3.44c.23-.34.11-.54,0-.64a.37.37,0,0,0-.22-.08A.49.49,0,0,0,.83,13a4.55,4.55,0,0,0-.67,1.45L0,15l0,.25V16l0,.14a4.56,4.56,0,0,0,4.48,4A4.47,4.47,0,0,0,7,19.44a.58.58,0,0,1,.32-.1H18.74a1.38,1.38,0,0,0,1.46-1.48V7.56A4.6,4.6,0,0,0,18.86,4.23ZM8.05,18.45a4.72,4.72,0,0,0,.36-.55,9.57,9.57,0,0,0,.44-1.09c0-.11.06-.12.14-.12v-.1H9v.1h5.23a1,1,0,0,0,.28,0,.4.4,0,0,0,0-.76H9L9,14.84h8.17a1,1,0,0,0,.3,0,.38.38,0,0,0,.26-.42.38.38,0,0,0-.35-.34H8.89c-.12,0-.16,0-.21-.15s-.25-.5-.38-.76L8.21,13h8.93a.67.67,0,0,0,.46-.14.4.4,0,0,0,.09-.27c0-.26-.19-.39-.55-.39H7.65a.42.42,0,0,1-.28-.1,4.24,4.24,0,0,0-2-1c-.08,0-.09,0-.09-.11V1.46A.59.59,0,0,1,5.9.8h6.23a2,2,0,0,1,2,2V4.65a1.4,1.4,0,0,0,1.48,1.5h1.75a2,2,0,0,1,2,2.07v9.65a.59.59,0,0,1-.62.67H8ZM17.2,5.34H15.59a.59.59,0,0,1-.65-.66c0-.33,0-1.39,0-1.39a3,3,0,0,0-.54-2.15,3.26,3.26,0,0,1,1,.67l.19.19c.95,1,1.91,1.92,2.83,2.9a3.84,3.84,0,0,1,.5.74l.12.2A3.14,3.14,0,0,0,17.2,5.34Z"/><path class="cls-1" d="M4.16,18.21A.4.4,0,0,0,4.51,18c.67-1.34,1.33-2.67,2-4a.37.37,0,0,0,0-.34.55.55,0,0,0-.39-.27.38.38,0,0,0-.33.26L4,17.15A.13.13,0,0,0,4,17.08c-.4-.42-.81-.84-1.22-1.25a.51.51,0,0,0-.33-.16.36.36,0,0,0-.26.11.39.39,0,0,0,0,.6l1.66,1.68A.45.45,0,0,0,4.16,18.21Z"/><path class="cls-1" d="M9.28,8.49A.36.36,0,0,0,9,8.9a.36.36,0,0,0,.33.35h.12v-.1l.09.1h7.8a.35.35,0,0,0,.32-.38.6.6,0,0,0-.22-.35c-.05,0-.13-.06-.27-.06H9.54A.8.8,0,0,0,9.28,8.49Z"/><path class="cls-1" d="M15,10.33H7.31a.38.38,0,0,0-.34.4.38.38,0,0,0,.36.38H15a.37.37,0,0,0,.35-.36A.38.38,0,0,0,15,10.33Z"/><path class="cls-1" d="M8.12,5.64a.4.4,0,0,0,.15,0,.36.36,0,0,0,.36-.28c0-.26.16-.36.38-.36l.18,0h.17c.35,0,.35,0,.49.35a.27.27,0,0,0,.15.17.73.73,0,0,0,.29.07h.06c.1,0,.16-.11.26-.24V5.12l-.21-.55c-.24-.65-.47-1.29-.72-1.93a.61.61,0,0,0-.46-.29.41.41,0,0,0-.37.29l-.06.15L7.9,5.12A.39.39,0,0,0,8.12,5.64Zm1-1.4.18-.47.17.47Z"/><path class="cls-1" d="M11,5.67a.45.45,0,0,0,.35-.19l.49-.7L12,4.62l.57.82a.47.47,0,0,0,.37.23.36.36,0,0,0,.22-.07A.41.41,0,0,0,13.21,5c-.23-.33-.45-.66-.69-1,0-.07,0-.09,0-.15.2-.28.39-.55.57-.84a.44.44,0,0,0,.08-.35.41.41,0,0,0-.33-.29.49.49,0,0,0-.36.17,5.89,5.89,0,0,0-.41.57L12,3.22l-.11-.15-.37-.53a.43.43,0,0,0-.34-.19.36.36,0,0,0-.33.2.4.4,0,0,0,.05.47l.62.9L10.77,5a.43.43,0,0,0,0,.5A.36.36,0,0,0,11,5.67Z"/><path class="cls-1" d="M7.16,5.66h.09a.36.36,0,0,0,.33-.28,1.09,1.09,0,0,0,0-.26v-2h.28a.39.39,0,0,0,.4-.39.38.38,0,0,0-.39-.4H6.53a.41.41,0,0,0-.29.12.38.38,0,0,0-.1.29.38.38,0,0,0,.39.38h.29V5.19a.29.29,0,0,0,0,.2A.65.65,0,0,0,7.16,5.66Z"/><path class="cls-1" d="M17.58,10.45a.4.4,0,0,0-.3-.13H16.16a.41.41,0,0,0-.41.39.39.39,0,0,0,.42.4h1.09a.39.39,0,0,0,.43-.38A.36.36,0,0,0,17.58,10.45Z"/></g></g></svg>